<svg width="254" height="80" viewBox="0 0 254 80" fill="none" xmlns="http://www.w3.org/2000/svg">
<path fill-rule="evenodd" clip-rule="evenodd" d="M126.583 0.470103C126.295 0.818193 126.208 5.27524 126.276 16.3422L126.367 31.73H130.273L130.375 28.1507C130.469 24.7682 130.53 24.5185 131.454 23.6331L132.432 22.6986L135.504 26.153C141.034 32.3656 140.473 31.9078 142.613 31.9078C144.432 31.9078 145.375 31.4878 145.36 30.6857C145.356 30.4814 143.201 27.9994 140.572 25.1693C137.943 22.3392 135.791 19.8571 135.784 19.649C135.78 19.4409 137.697 17.2502 140.038 14.7796C145.235 9.30096 145.432 8.49884 141.579 8.49884C139.992 8.49884 139.947 8.5329 135.227 13.3759L130.477 18.2529L130.466 9.48636C130.451 1.18898 130.413 0.700901 129.765 0.352813C128.791 -0.165537 127.06 -0.101215 126.583 0.470103ZM68.1666 3.0278C68.0492 3.33805 67.9507 4.69635 67.9507 6.04331V8.49884H66.5567C64.356 8.49884 63.5757 9.70202 64.3901 11.8435C64.6893 12.6305 64.9507 12.7554 66.2954 12.7554H67.8522L68.0264 19.6263C68.2234 27.5378 68.6401 28.9907 71.2499 30.8787C72.5681 31.8321 72.9128 31.9078 75.8105 31.9078C78.9052 31.9078 78.9507 31.8965 79.1817 30.9733C79.3105 30.4587 79.2726 29.6187 79.0908 29.1117C78.7991 28.2794 78.534 28.1621 76.4885 27.9653C74.606 27.7875 74.0681 27.5832 73.3901 26.7924C72.5946 25.8692 72.5681 25.6233 72.5681 19.2972V12.7554H75.3673C77.3976 12.7554 78.2802 12.6116 78.5984 12.2332C79.1817 11.5295 79.1514 9.19124 78.5529 8.81288C78.2878 8.6464 76.8332 8.50641 75.3219 8.50263L72.5681 8.49884V5.9071C72.5681 4.36718 72.3939 3.14887 72.1401 2.89537C71.4886 2.24082 68.4317 2.34297 68.1666 3.0278ZM112.341 8.45722C109.068 9.15719 106.879 11.0944 106.261 13.8337C105.523 17.1178 107.636 20.262 111.31 21.3516C112.363 21.6657 114.379 22.2559 115.788 22.6645C119.47 23.7353 120.424 25.3433 118.39 27.0573C116.204 28.8923 112.136 28.582 109.564 26.3838C108.784 25.7141 107.985 25.1693 107.795 25.1693C107.31 25.1693 105.238 27.5718 105.238 28.1318C105.238 29.4788 108.947 31.6505 112.288 32.2559C116.242 32.971 119.795 31.9343 122.087 29.3993C123.534 27.7988 123.86 26.7886 123.613 24.6206C123.254 21.4349 120.735 19.4863 115.148 18.0713C111.269 17.0913 110.564 16.6297 110.564 15.0596C110.564 13.338 111.814 12.5775 114.632 12.5813C116.401 12.5851 117.132 12.7894 118.788 13.7429L120.795 14.8969L121.894 13.9699C123.398 12.7062 123.329 11.6619 121.663 10.5155C120.932 10.0085 119.765 9.3615 119.072 9.07395C117.511 8.42317 113.996 8.10157 112.341 8.45722ZM86.5264 9.24421C84.0302 10.2015 81.3522 12.6797 80.1325 15.1655C79.2651 16.9249 79.1363 17.6021 79.1363 20.3793C79.1363 23.0921 79.2802 23.8753 80.0794 25.5779C83.0453 31.9002 91.1779 34.4277 96.8976 30.8068C97.7878 30.243 98.5908 29.7814 98.6817 29.7814C98.7726 29.7814 98.8446 30.1863 98.8446 30.6781C98.8446 31.9154 99.837 32.2445 102.663 31.9532C103.007 31.9192 103.106 29.3501 103.106 20.4209C103.106 7.90104 103.208 8.49884 101.102 8.49884C99.6287 8.49884 98.8446 9.12692 98.8446 10.3074V11.3857L97.8067 10.6441C94.6135 8.37399 90.212 7.82915 86.5264 9.24421ZM87.0756 13.7769C82.8446 16.4557 82.0719 22.1084 85.4355 25.7519C87.3863 27.867 89.9128 28.6426 92.7802 28.0107C96.0302 27.2956 98.8446 23.8072 98.8446 20.4928C98.8446 18.9226 97.7575 16.3876 96.5567 15.1504C94.8938 13.4402 93.2423 12.7554 90.784 12.7554C89.0832 12.7554 88.3825 12.9483 87.0756 13.7769ZM160.485 37.7042C159.007 39.1798 159.269 41.484 161.015 42.3845C162.454 43.1299 163.382 43.0315 164.382 42.0326C166.155 40.2619 165.2 37.3978 162.704 37.0005C161.617 36.8265 161.246 36.9437 160.485 37.7042ZM72.6779 46.047C67.4961 47.8367 64.4507 52.0667 64.4166 57.5226C64.3863 62.1196 66.9696 66.327 71.0378 68.3171C73.837 69.683 77.9469 69.8911 80.8067 68.8128C83.034 67.9766 86.4166 65.1995 86.4166 64.2082C86.4166 63.5423 85.659 62.7553 84.3863 62.0969C83.6969 61.7413 83.4203 61.8472 82.212 62.9369C80.3938 64.579 78.6893 65.2524 76.3976 65.2449C68.6514 65.2108 65.7689 54.9687 72.3636 50.9013C75.4166 49.0171 79.6438 49.6111 82.1287 52.271C83.231 53.4515 83.9241 53.4326 85.1097 52.1953C86.3711 50.8786 86.3143 50.3792 84.731 48.8923C82.9431 47.2124 81.9204 46.6221 79.6666 45.9524C77.212 45.2222 74.9772 45.2525 72.6779 46.047ZM95.4014 46.047C89.8825 47.9539 86.856 52.5359 87.1969 58.4647C87.4847 63.3909 90.212 67.061 94.9014 68.8279C97.5794 69.8343 101.761 69.6565 104.352 68.4231C106.708 67.2956 108.985 64.9649 110.151 62.4829C111.443 59.7284 111.5 55.3281 110.276 52.6607C107.723 47.0837 101.026 44.106 95.4014 46.047ZM121.928 45.7633C121.049 45.9449 119.651 46.5654 118.822 47.1518L117.314 48.2112V47.3448C117.314 45.8616 114.769 45.1427 113.61 46.3005C113.125 46.781 113.053 48.3058 113.053 57.5794C113.053 65.4454 113.167 68.4155 113.477 68.7295C114.042 69.2895 116.769 69.2744 117.242 68.7068C117.466 68.4382 117.659 65.3432 117.731 60.9619L117.845 53.6671L118.867 52.3278C121.288 49.1647 126.481 49.1798 128.568 52.3618C129.125 53.2055 129.223 54.3255 129.326 60.7954C129.394 65.3016 129.587 68.4344 129.81 68.7068C130.235 69.2138 133.148 69.3198 133.447 68.8355C133.557 68.6614 133.678 65.0292 133.719 60.7651C133.795 53.3228 133.765 52.9407 132.966 51.1511C131.17 47.114 126.5 44.8363 121.928 45.7633ZM144.92 45.7519C141.197 46.6902 138.235 49.176 136.538 52.7931C135.208 55.6232 135.204 59.6225 136.523 62.4148C137.644 64.7908 139.932 67.1291 142.333 68.3587C144.909 69.6792 149.022 69.8722 151.848 68.809C154.219 67.9123 157.269 65.6346 157.636 64.4844C157.837 63.8487 157.647 63.4855 156.701 62.6947C155.235 61.4726 154.943 61.4651 153.863 62.638C153.39 63.1525 152.201 63.9471 151.227 64.4087C148.121 65.8692 145.041 65.4151 142.416 63.1109C140.469 61.397 139.913 59.9062 140.102 56.9172C140.28 54.1779 141.515 52.1878 143.92 50.7765C146.909 49.0209 151.246 49.7625 153.678 52.445C154.636 53.5044 155.799 53.3796 156.875 52.1007C157.951 50.8257 157.803 50.3489 155.784 48.5782C152.988 46.1227 148.291 44.9044 144.92 45.7519ZM175.81 45.7519C173.818 46.2551 171.814 47.3713 170.432 48.7523C164.375 54.8022 166.034 64.787 173.712 68.4987C176.197 69.7019 180.723 69.8343 183.496 68.7901C185.704 67.9615 189.045 65.1389 189.045 64.106C189.045 63.5158 187.125 61.7034 186.5 61.7034C186.299 61.7034 185.42 62.3353 184.541 63.1071C182.53 64.8741 181.034 65.3659 178.216 65.1881C174.954 64.98 172.39 63.0126 171.485 60.0198L171.242 59.2214H180.075C190.519 59.2214 190.31 59.2857 190.182 56.1681C190.011 52.1424 187.659 48.6312 183.886 46.7735C181.405 45.5552 178.212 45.1503 175.81 45.7519ZM213.644 45.9146C211.219 46.5919 209.39 47.7723 207.583 49.8268C205.431 52.2634 204.564 54.8363 204.753 58.2074C205.019 62.9558 207.333 66.3383 211.731 68.3966C215.447 70.137 221.064 69.4711 223.723 66.974L224.496 66.2513L224.303 68.3247C223.878 72.9066 221.038 75.54 216.511 75.54C214 75.54 212.322 74.806 210.303 72.8271C208.481 71.0375 207.882 70.9959 206.428 72.5434L205.587 73.4363L206.265 74.6924C207.545 77.0685 210.753 79.0663 214.462 79.7927C219.761 80.837 225.538 77.8442 227.825 72.8801C228.617 71.1548 228.644 70.7613 228.75 58.9301C228.867 45.8768 228.852 45.7406 227.087 45.7481C225.269 45.7557 224.53 46.153 224.314 47.2199C224.128 48.1545 224.053 48.1999 223.519 47.7194C221.496 45.8919 216.791 45.0292 213.644 45.9146ZM238.981 45.9486C235.344 47.1102 232.583 49.6906 231.272 53.1639C230.212 55.9676 230.428 60.103 231.776 62.8574C232.856 65.0595 235.079 67.288 237.394 68.4836C239.7 69.6754 244.287 69.8381 246.981 68.8203C249.007 68.0598 251.935 65.801 252.666 64.439C253.003 63.8071 252.901 63.5574 251.943 62.7023C250.575 61.484 249.674 61.4386 248.943 62.551C247.409 64.8854 242.284 65.9637 239.295 64.579C237.17 63.599 235.208 61.1851 235.208 59.5544C235.208 59.3576 238.867 59.2214 244.223 59.2214C251.84 59.2214 253.303 59.1382 253.681 58.6842C253.984 58.3209 254.068 57.4204 253.947 55.8919C253.734 53.2623 252.087 49.8117 250.333 48.3285C247.382 45.8351 242.522 44.8174 238.981 45.9486ZM160.901 46.1265C160.333 46.4594 160.28 47.3826 160.28 57.394C160.28 65.4038 160.394 68.4155 160.708 68.7295C161.227 69.2479 164.057 69.2971 164.371 68.7901C164.492 68.5933 164.579 63.5233 164.564 57.5302C164.534 47.7723 164.469 46.5843 163.935 46.187C163.223 45.6535 161.761 45.627 160.901 46.1265ZM192.799 46.3005C192.318 46.781 192.242 48.3058 192.242 57.5794C192.242 65.4454 192.356 68.4155 192.666 68.7295C193.219 69.2782 195.878 69.2782 196.432 68.7295C196.731 68.4306 196.86 66.4443 196.86 62.078C196.86 58.6539 197.03 55.2487 197.235 54.5109C198.019 51.6921 200.431 50.0046 203.685 50.0009C205.17 50.0009 205.53 49.3614 205.318 47.1216C205.212 46.0016 205.11 45.9108 203.799 45.8049C201.651 45.6308 200.253 46.013 198.348 47.2918L196.606 48.4609L196.575 47.4015C196.56 46.8227 196.337 46.2097 196.079 46.0508C195.307 45.5589 193.394 45.7065 192.799 46.3005ZM96.6021 50.1371C94.3181 50.9884 92.7537 52.5964 91.9355 54.9384C89.5719 61.7299 96.2385 67.5415 102.708 64.3217C108.231 61.571 108.223 53.4969 102.693 50.6781C100.833 49.7322 98.3067 49.5052 96.6021 50.1371ZM175.254 50.5684C173.488 51.4462 171.644 53.4666 171.644 54.5147C171.644 54.8627 173.246 54.9649 178.738 54.9649H185.833L185.462 53.9887C184.935 52.5926 183.409 51.0792 181.765 50.3187C179.727 49.3766 177.477 49.4636 175.254 50.5684ZM214.515 50.103C208.253 52.1121 207.136 60.977 212.753 64.0871C216.81 66.3307 221.56 64.8476 223.666 60.6743C224.602 58.8241 224.291 55.1427 223.045 53.2623C221.269 50.5797 217.443 49.1609 214.515 50.103ZM239.469 50.19C238.787 50.4965 237.776 51.1775 237.219 51.7035C236.253 52.6191 235.03 54.5563 235.272 54.7871C235.511 55.0179 236.632 55.0481 243.136 55.0065L249.822 54.9649L248.996 53.4742C247.727 51.1738 245.613 49.8798 242.928 49.7436C241.469 49.6717 240.291 49.823 239.469 50.19Z" fill="#211F47"/>
<ellipse cx="15.2727" cy="22.0742" rx="15.2727" ry="15.2554" fill="#6C63FF"/>
<ellipse cx="15.2727" cy="54.038" rx="15.2727" ry="15.2554" fill="#211F47"/>
<ellipse cx="34.1819" cy="22.0742" rx="15.2727" ry="15.2554" fill="#6C63FF"/>
<ellipse cx="34.1819" cy="54.038" rx="15.2727" ry="15.2554" fill="#6C63FF"/>
<path d="M24.7266 10.0928C28.2704 12.8865 30.5449 17.2148 30.5449 22.0742C30.5449 26.9336 28.2703 31.262 24.7266 34.0557C21.1832 31.2619 18.9092 26.9333 18.9092 22.0742C18.9092 17.2152 21.1832 12.8865 24.7266 10.0928Z" fill="#211F47"/>
</svg>
