<svg width="72" height="100" viewBox="0 0 72 100" fill="none" xmlns="http://www.w3.org/2000/svg">
<path fill-rule="evenodd" clip-rule="evenodd" d="M51.899 25.1243C36.9526 28.4422 26.7629 38.5103 23.0328 53.6458C18.8637 70.558 28.1287 89.0072 44.4325 96.2615C49.0343 98.3088 52.6937 99.0118 61.0006 99.445L71.6625 100V87.3545V74.7079H63.2183C54.797 74.7079 53.9138 74.7079 49.7531 71.5837C47.1526 67.9389 46.7012 65.8946 46.7137 62.5945C46.7334 57.3303 48.5205 53.9676 52.8476 51.0476C55.7186 49.1106 57.7771 48.6732 64.0151 48.6732H71.6625V36.1766V23.6799L64.6413 23.7674C60.7791 23.8153 55.0456 24.4256 51.899 25.1243Z" fill="#6C63FF"/>
<path fill-rule="evenodd" clip-rule="evenodd" d="M25.03 10.7731C25.03 24.6861 24.9104 24.8079 10.95 25.213L0.585625 25.514L0.292293 37.7503L0 49.9866H11.8997H23.8005L24.1552 38.9666C24.6046 24.9974 24.6087 24.9933 39.2712 24.9933H49.9945V12.4966V0H37.5122H25.03V10.7731Z" fill="#211F47"/>
</svg>
