<svg width="299" height="97" viewBox="0 0 299 97" fill="none" xmlns="http://www.w3.org/2000/svg">
<path fill-rule="evenodd" clip-rule="evenodd" d="M47.3139 22.9047C33.688 25.9294 24.3986 35.108 20.998 48.9063C17.1973 64.3242 25.6437 81.1434 40.5071 87.7568C44.7023 89.6233 48.0384 90.2641 55.6114 90.6591L65.3313 91.1651V79.6368V68.1075H57.6332C49.9558 68.1075 49.1507 68.1075 45.3576 65.2594C42.9869 61.9365 42.5753 60.0729 42.5867 57.0643C42.6047 52.2652 44.2339 49.1996 48.1787 46.5376C50.796 44.7717 52.6727 44.373 58.3595 44.373H65.3313V32.9804V21.5879L58.9304 21.6676C55.4094 21.7113 50.1825 22.2676 47.3139 22.9047Z" fill="#6C63FF"/>
<path fill-rule="evenodd" clip-rule="evenodd" d="M22.8186 9.82133C22.8186 22.505 22.7095 22.6161 9.9826 22.9854L0.533885 23.2598L0.266468 34.415L0 45.5702H10.8484H21.6977L22.0211 35.5239C22.4307 22.7889 22.4345 22.7851 35.8016 22.7851H45.5774V11.3926V0H34.198H22.8186V9.82133Z" fill="#211F47"/>
<path d="M108.012 17.085V22.565H100.572V45.165H93.7315V22.565H86.2915V17.085H108.012ZM110.084 33.965C110.084 31.6717 110.511 29.6584 111.364 27.925C112.244 26.1917 113.431 24.8584 114.924 23.925C116.418 22.9917 118.084 22.525 119.924 22.525C121.498 22.525 122.871 22.845 124.044 23.485C125.244 24.125 126.164 24.965 126.804 26.005V22.845H133.644V45.165H126.804V42.005C126.138 43.045 125.204 43.885 124.004 44.525C122.831 45.165 121.458 45.485 119.884 45.485C118.071 45.485 116.418 45.0184 114.924 44.085C113.431 43.125 112.244 41.7784 111.364 40.045C110.511 38.285 110.084 36.2584 110.084 33.965ZM126.804 34.005C126.804 32.2984 126.324 30.9517 125.364 29.965C124.431 28.9784 123.284 28.485 121.924 28.485C120.564 28.485 119.404 28.9784 118.444 29.965C117.511 30.925 117.044 32.2584 117.044 33.965C117.044 35.6717 117.511 37.0317 118.444 38.045C119.404 39.0317 120.564 39.525 121.924 39.525C123.284 39.525 124.431 39.0317 125.364 38.045C126.324 37.0584 126.804 35.7117 126.804 34.005ZM147.673 45.485C145.726 45.485 143.993 45.1517 142.473 44.485C140.953 43.8184 139.753 42.9117 138.873 41.765C137.993 40.5917 137.499 39.285 137.393 37.845H144.153C144.233 38.6184 144.593 39.245 145.233 39.725C145.873 40.205 146.659 40.445 147.593 40.445C148.446 40.445 149.099 40.285 149.553 39.965C150.033 39.6184 150.273 39.1784 150.273 38.645C150.273 38.005 149.939 37.5384 149.273 37.245C148.606 36.925 147.526 36.5784 146.033 36.205C144.433 35.8317 143.099 35.445 142.033 35.045C140.966 34.6184 140.046 33.965 139.273 33.085C138.499 32.1784 138.113 30.965 138.113 29.445C138.113 28.165 138.459 27.005 139.153 25.965C139.873 24.8984 140.913 24.0584 142.273 23.445C143.659 22.8317 145.299 22.525 147.193 22.525C149.993 22.525 152.193 23.2184 153.793 24.605C155.419 25.9917 156.353 27.8317 156.593 30.125H150.273C150.166 29.3517 149.819 28.7384 149.233 28.285C148.673 27.8317 147.926 27.605 146.993 27.605C146.193 27.605 145.579 27.765 145.153 28.085C144.726 28.3784 144.513 28.7917 144.513 29.325C144.513 29.965 144.846 30.445 145.513 30.765C146.206 31.085 147.273 31.405 148.713 31.725C150.366 32.1517 151.713 32.5784 152.753 33.005C153.793 33.405 154.699 34.0717 155.473 35.005C156.273 35.9117 156.686 37.1384 156.713 38.685C156.713 39.9917 156.339 41.165 155.593 42.205C154.873 43.2184 153.819 44.0184 152.433 44.605C151.073 45.1917 149.486 45.485 147.673 45.485ZM174.537 45.165L167.737 35.805V45.165H160.897V15.565H167.737V31.925L174.497 22.845H182.937L173.657 34.045L183.017 45.165H174.537ZM86.6515 71.085C86.6515 68.3117 87.2515 65.845 88.4515 63.685C89.6515 61.4984 91.3182 59.805 93.4515 58.605C95.6115 57.3784 98.0515 56.765 100.772 56.765C104.105 56.765 106.958 57.645 109.332 59.405C111.705 61.165 113.292 63.565 114.092 66.605H106.572C106.012 65.4317 105.212 64.5384 104.172 63.925C103.158 63.3117 101.998 63.005 100.692 63.005C98.5849 63.005 96.8782 63.7384 95.5715 65.205C94.2649 66.6717 93.6115 68.6317 93.6115 71.085C93.6115 73.5384 94.2649 75.4984 95.5715 76.965C96.8782 78.4317 98.5849 79.165 100.692 79.165C101.998 79.165 103.158 78.8584 104.172 78.245C105.212 77.6317 106.012 76.7384 106.572 75.565H114.092C113.292 78.605 111.705 81.005 109.332 82.765C106.958 84.4984 104.105 85.365 100.772 85.365C98.0515 85.365 95.6115 84.765 93.4515 83.565C91.3182 82.3384 89.6515 80.645 88.4515 78.485C87.2515 76.325 86.6515 73.8584 86.6515 71.085ZM128.44 85.485C126.254 85.485 124.28 85.0184 122.52 84.085C120.787 83.1517 119.414 81.8184 118.4 80.085C117.414 78.3517 116.92 76.325 116.92 74.005C116.92 71.7117 117.427 69.6984 118.44 67.965C119.454 66.205 120.84 64.8584 122.6 63.925C124.36 62.9917 126.334 62.525 128.52 62.525C130.707 62.525 132.68 62.9917 134.44 63.925C136.2 64.8584 137.587 66.205 138.6 67.965C139.614 69.6984 140.12 71.7117 140.12 74.005C140.12 76.2984 139.6 78.325 138.56 80.085C137.547 81.8184 136.147 83.1517 134.36 84.085C132.6 85.0184 130.627 85.485 128.44 85.485ZM128.44 79.565C129.747 79.565 130.854 79.085 131.76 78.125C132.694 77.165 133.16 75.7917 133.16 74.005C133.16 72.2184 132.707 70.845 131.8 69.885C130.92 68.925 129.827 68.445 128.52 68.445C127.187 68.445 126.08 68.925 125.2 69.885C124.32 70.8184 123.88 72.1917 123.88 74.005C123.88 75.7917 124.307 77.165 125.16 78.125C126.04 79.085 127.134 79.565 128.44 79.565ZM157.349 62.605C159.962 62.605 162.042 63.4584 163.589 65.165C165.162 66.845 165.949 69.165 165.949 72.125V85.165H159.149V73.045C159.149 71.5517 158.762 70.3917 157.989 69.565C157.216 68.7384 156.176 68.325 154.869 68.325C153.562 68.325 152.522 68.7384 151.749 69.565C150.976 70.3917 150.589 71.5517 150.589 73.045V85.165H143.749V62.845H150.589V65.805C151.282 64.8184 152.216 64.045 153.389 63.485C154.562 62.8984 155.882 62.605 157.349 62.605ZM169.342 74.005C169.342 71.685 169.809 69.6584 170.742 67.925C171.702 66.1917 173.022 64.8584 174.702 63.925C176.409 62.9917 178.356 62.525 180.542 62.525C183.342 62.525 185.676 63.2584 187.542 64.725C189.436 66.1917 190.676 68.2584 191.262 70.925H183.982C183.369 69.2184 182.182 68.365 180.422 68.365C179.169 68.365 178.169 68.8584 177.422 69.845C176.676 70.805 176.302 72.1917 176.302 74.005C176.302 75.8184 176.676 77.2184 177.422 78.205C178.169 79.165 179.169 79.645 180.422 79.645C182.182 79.645 183.369 78.7917 183.982 77.085H191.262C190.676 79.6984 189.436 81.7517 187.542 83.245C185.649 84.7384 183.316 85.485 180.542 85.485C178.356 85.485 176.409 85.0184 174.702 84.085C173.022 83.1517 171.702 81.8184 170.742 80.085C169.809 78.3517 169.342 76.325 169.342 74.005ZM198.361 60.525C197.161 60.525 196.174 60.1784 195.401 59.485C194.654 58.765 194.281 57.885 194.281 56.845C194.281 55.7784 194.654 54.8984 195.401 54.205C196.174 53.485 197.161 53.125 198.361 53.125C199.534 53.125 200.494 53.485 201.241 54.205C202.014 54.8984 202.401 55.7784 202.401 56.845C202.401 57.885 202.014 58.765 201.241 59.485C200.494 60.1784 199.534 60.525 198.361 60.525ZM201.761 62.845V85.165H194.921V62.845H201.761ZM227.758 73.645C227.758 74.285 227.718 74.9517 227.638 75.645H212.158C212.264 77.0317 212.704 78.0984 213.478 78.845C214.278 79.565 215.251 79.925 216.398 79.925C218.104 79.925 219.291 79.205 219.958 77.765H227.238C226.864 79.2317 226.184 80.5517 225.198 81.725C224.238 82.8984 223.024 83.8184 221.558 84.485C220.091 85.1517 218.451 85.485 216.638 85.485C214.451 85.485 212.504 85.0184 210.798 84.085C209.091 83.1517 207.758 81.8184 206.798 80.085C205.838 78.3517 205.358 76.325 205.358 74.005C205.358 71.685 205.824 69.6584 206.758 67.925C207.718 66.1917 209.051 64.8584 210.758 63.925C212.464 62.9917 214.424 62.525 216.638 62.525C218.798 62.525 220.718 62.9784 222.398 63.885C224.078 64.7917 225.384 66.085 226.318 67.765C227.278 69.445 227.758 71.405 227.758 73.645ZM220.758 71.845C220.758 70.6717 220.358 69.7384 219.558 69.045C218.758 68.3517 217.758 68.005 216.558 68.005C215.411 68.005 214.438 68.3384 213.638 69.005C212.864 69.6717 212.384 70.6184 212.198 71.845H220.758ZM238.206 66.565C239.006 65.3384 240.006 64.3784 241.206 63.685C242.406 62.965 243.74 62.605 245.206 62.605V69.845H243.326C241.62 69.845 240.34 70.2184 239.486 70.965C238.633 71.685 238.206 72.965 238.206 74.805V85.165H231.366V62.845H238.206V66.565ZM256.956 62.525C258.529 62.525 259.902 62.845 261.076 63.485C262.276 64.125 263.196 64.965 263.836 66.005V62.845H270.676V85.125C270.676 87.1784 270.262 89.0317 269.436 90.685C268.636 92.365 267.396 93.6984 265.716 94.685C264.062 95.6717 261.996 96.165 259.516 96.165C256.209 96.165 253.529 95.3784 251.476 93.805C249.422 92.2584 248.249 90.1517 247.956 87.485H254.716C254.929 88.3384 255.436 89.005 256.236 89.485C257.036 89.9917 258.022 90.245 259.196 90.245C260.609 90.245 261.729 89.8317 262.556 89.005C263.409 88.205 263.836 86.9117 263.836 85.125V81.965C263.169 83.005 262.249 83.8584 261.076 84.525C259.902 85.165 258.529 85.485 256.956 85.485C255.116 85.485 253.449 85.0184 251.956 84.085C250.462 83.125 249.276 81.7784 248.396 80.045C247.542 78.285 247.116 76.2584 247.116 73.965C247.116 71.6717 247.542 69.6584 248.396 67.925C249.276 66.1917 250.462 64.8584 251.956 63.925C253.449 62.9917 255.116 62.525 256.956 62.525ZM263.836 74.005C263.836 72.2984 263.356 70.9517 262.396 69.965C261.462 68.9784 260.316 68.485 258.956 68.485C257.596 68.485 256.436 68.9784 255.476 69.965C254.542 70.925 254.076 72.2584 254.076 73.965C254.076 75.6717 254.542 77.0317 255.476 78.045C256.436 79.0317 257.596 79.525 258.956 79.525C260.316 79.525 261.462 79.0317 262.396 78.045C263.356 77.0584 263.836 75.7117 263.836 74.005ZM296.664 73.645C296.664 74.285 296.624 74.9517 296.544 75.645H281.064C281.171 77.0317 281.611 78.0984 282.384 78.845C283.184 79.565 284.157 79.925 285.304 79.925C287.011 79.925 288.197 79.205 288.864 77.765H296.144C295.771 79.2317 295.091 80.5517 294.104 81.725C293.144 82.8984 291.931 83.8184 290.464 84.485C288.997 85.1517 287.357 85.485 285.544 85.485C283.357 85.485 281.411 85.0184 279.704 84.085C277.997 83.1517 276.664 81.8184 275.704 80.085C274.744 78.3517 274.264 76.325 274.264 74.005C274.264 71.685 274.731 69.6584 275.664 67.925C276.624 66.1917 277.957 64.8584 279.664 63.925C281.371 62.9917 283.331 62.525 285.544 62.525C287.704 62.525 289.624 62.9784 291.304 63.885C292.984 64.7917 294.291 66.085 295.224 67.765C296.184 69.445 296.664 71.405 296.664 73.645ZM289.664 71.845C289.664 70.6717 289.264 69.7384 288.464 69.045C287.664 68.3517 286.664 68.005 285.464 68.005C284.317 68.005 283.344 68.3384 282.544 69.005C281.771 69.6717 281.291 70.6184 281.104 71.845H289.664Z" fill="#211F47"/>
</svg>
